<svg id="Layer_1" data-name="Layer 1" xmlns="http://www.w3.org/2000/svg" viewBox="0 0 495 63"><path d="M269,223v-9h-9v-9h-9V178h9v-9h9v-9h36v9h9v9H296v-9H278v9h-9v27h9v9h18v-9h18v9h-9v9Z" transform="translate(-251 -160)"/><path d="M332,223v-9h-9V178h18v36h27V178h18v45Z" transform="translate(-251 -160)"/><path d="M422,223V187H404v-9h18V160h18v18h18v9H440v36Z" transform="translate(-251 -160)"/><path d="M476,223v-9h-9V187h9v-9h45v9h9v18H485v9h36v9Zm9-27h27v-9H485Z" transform="translate(-251 -160)"/><path d="M548,223V160h18v54h36v9Z" transform="translate(-251 -160)"/><path d="M620,223v-9h-9v-9h9v-9h36v-9H620v-9h45v9h9v36Zm9-9h27v-9H629Z" transform="translate(-251 -160)"/><path d="M692,223v-9h-9V160h18v18h36v9h9v27h-9v9Zm9-9h27V187H701Z" transform="translate(-251 -160)"/></svg>