<svg id="Vector_layer" data-name="Vector layer" xmlns="http://www.w3.org/2000/svg" viewBox="0 0 2539.35 2370.47"><path d="M1364.28,1206.69a60,60,0,0,1-8.16-5,169.65,169.65,0,0,1-26.08-23.44c-5.64-6.08-11.23-12.52-15.54-19.63-.77-1.27-7.13-11.54-1.63-11.54a12.7,12.7,0,0,1,5.57,1.67,60.88,60.88,0,0,1,8.15,5,170.78,170.78,0,0,1,26.09,23.45c5.64,6.08,11.22,12.52,15.54,19.63.77,1.27,7.13,11.54,1.63,11.54A12.62,12.62,0,0,1,1364.28,1206.69Z" transform="translate(-769.35 -876.54)"/><path d="M1349.65,2985.28c-5-.21-10.06-.41-15.09-.67-9.07-.45-18.15-.94-27.22-1.36a271.56,271.56,0,0,1-27.93-2.36c-6-.92-12-1.84-17.73-4-11.33-4.19-21.37-10.55-31.29-17.36-18.48-12.7-35.37-28-51.19-43.85-8.24-8.25-16.92-17.45-24.53-26.31q-5.58-6.48-10.84-13.19a225.64,225.64,0,0,1-15-21.15c-4.7-8.21-9.87-16.58-11.44-26.07a74.06,74.06,0,0,1-1.15-10.09c-.14-4.2.22-8.42.49-12.61,1.14-18,2.34-36,3.21-54s1.55-35.81,1.91-53.73,1-36,2.12-54c2.32-37.6,6-75.09,7.85-112.73,1.79-37,2-74,2.22-111,.14-18-.1-36.05-.46-54.08-.36-18.3-.41-36.59-.35-54.89s0-36.42-.11-54.63c-.06-17.24.34-34.46.65-51.7.31-18,.52-36,.86-54,.36-18.87.82-37.74.66-56.61s-.67-37.92-1.75-56.87c-1-17.27-2.58-34.5-3.7-51.76q-1.92-29.47-3.07-59c-.68-18.28-1.6-36.57-2-54.85-.42-18.83-.19-37.66-.25-56.49-.06-18-.55-36-1.12-53.92-.6-18.91-1.83-37.81-2.83-56.7-.93-17.76-2.18-35.49-2.34-53.27-.17-18,.24-36,.58-53.94.37-19.59.82-39.16,1.59-58.73.69-17.43,2-34.78,5-52,3.06-17.47,3.42-35.36,3.93-53.06,1.06-37.41,1.85-74.8,1.37-112.23-.25-20.6-.68-41.18-1.62-61.76-.86-18.64-3-37.17-4-55.79-.5-9.22-.75-18.39-.87-27.62a139.2,139.2,0,0,1,.88-15.4,44.58,44.58,0,0,1,3.46-13.47c1.82-4.15,3.91-7.28,8-9.33,7.64-3.8,16.15-1.07,23.8,1.38,4.83,1.54,9.67,3.11,14.59,4.4,9.38,2.46,18.79,4.39,28.34,6a448.6,448.6,0,0,0,50.77,2.79c8.23-.07,16.43-.29,24.65-.86,4.44-.31,8.87-.63,13.31-.9,3.37-.21,6.74-.35,10.11-.59a40.77,40.77,0,0,1,11.15.82,8.12,8.12,0,0,0,1-1.82.81.81,0,0,0,0-.16c-.38-3.6,5.67-.87,6.62-.42a52.13,52.13,0,0,1,7,4.3,126.53,126.53,0,0,1,13.08,10.83,144.34,144.34,0,0,1,20.08,22.34,52.09,52.09,0,0,1,4.31,7c.62,1.32,2.37,4.6.91,6.12a1.83,1.83,0,0,0-.32.48,9,9,0,0,0-.36,1.56c.33.78.64,1.56.94,2.35s.46,1.34.68,2a5.48,5.48,0,0,1-.35,4.75c-1,3.42-3.94,5.06-6.8,6.86-3.4,2.15-7.33,3.46-11.08,4.83a176,176,0,0,1-21.31,5.9l-21.52,4.88a174.46,174.46,0,0,0-18.56,5.54c-5.89,2.86-11.63,6-16.32,10.65a66.11,66.11,0,0,0-5.75,6.64c-1.64,2.13-3.22,4.27-5,6.33a46.83,46.83,0,0,0-7.16,11c-3.23,10.73-3.67,22.29-4.55,33.39-.69,8.72-1.06,17.45-1.39,26.19-.67,17.41-.34,34.87-.31,52.29,0,38.69.12,77.37-.18,116.06-.15,19.19-.54,38.38-.69,57.57-.06,8.9-.1,17.8-.18,26.7-.1,9.81-.64,19.56-1.32,29.34-1.28,18.35-1.76,36.76-1.77,55.15,0,20.15,0,40.29.24,60.43q.27,26.83,2.38,53.55c.73,9.15,1.74,18.28,2.48,27.43.85,10.41,1.63,20.82,2.4,31.23,1.39,19.18,2.92,38.34,4.09,57.54,1.11,18,1.71,36,2.13,54,.45,19,.95,38,2,57.06,1,17.79,1.59,35.6,2.46,53.4,1,20.33,2.24,40.59,4.21,60.85,1.86,19,4.52,38,6.51,57,3.9,37.31,2.88,75,2.68,112.45-.2,36.73.57,73.44.76,110.16.19,36.37.44,72.73,1.44,109.08.52,19,1.27,37.89,1.54,56.84.27,17.89.07,35.78-.36,53.67-.46,19.2-1,38.38-2.1,57.56-1,17.65-3.13,35.22-4.57,52.83-1.6,19.45-3,38.91-4.29,58.38-1.06,16-2.6,31.88-3.77,47.83a27.64,27.64,0,0,1,9.66,3.37,132.84,132.84,0,0,1,17.76,11c20.77,14.65,39.57,32.5,56.83,51.09,12.29,13.23,24.46,27.25,33.86,42.75a68.86,68.86,0,0,1,7.43,15.17c.28,1.76.55,3.51.83,5.26-.16,3-1.73,4.54-4.71,4.71l-.64.22c-7.11,3.09-13.65,7.54-21.22,9.44a29,29,0,0,1-7.14.76C1353.77,2985.49,1351.7,2985.37,1349.65,2985.28Z" transform="translate(-769.35 -876.54)"/><path d="M1638.44,2991c-6.35-.87-12.71-1.66-19.1-2.19a287,287,0,0,0-38.46-.22c-6.08.31-12.17.58-18.24,1.05-2.7.21-5.39.45-8.09.67a51.39,51.39,0,0,1-10.22.3,32.2,32.2,0,0,1-14.13-4.23,154.69,154.69,0,0,1-20.66-12.73q-13-9.37-25.14-19.88a507.29,507.29,0,0,1-41-39.58q-12-12.84-22.93-26.6A248.52,248.52,0,0,1,1404,2864.4a79.92,79.92,0,0,1-8.65-17.66c-.32-2-.65-4.08-1-6.12.18-3.46,2-5.29,5.47-5.48,2.47-.63,5-.23,7.55-.09s4.93.23,7.39.32c4.53.16,9.06.09,13.58,0,10.1-.13,20.19,0,30.25.77s20.29,1.9,30.41,3.3q8.06,1.13,16.12,2.11c7.75,1,15.8,1.53,23.41-.43a12.32,12.32,0,0,0,2.1-1.52,17.45,17.45,0,0,0,2.11-2.5,12.54,12.54,0,0,0,1.29-2.14c1.53-5.5,1.54-11.37,1.61-17,.11-7.83-.8-15.76-1.4-23.56-1.44-18.74-3.37-37.42-4.1-56.21-.71-18-.66-36.09-1.22-54.12-.54-17.45-1.56-34.87-2.18-52.31-.64-17.92-.62-35.87-.79-53.8-.18-17.56-.23-35.12-.55-52.68-.7-37.21-1-74.48-.34-111.7.31-18.47.72-36.94,1.35-55.4.63-18.71,1.69-37.39,2.87-56.08,2.24-35.66,2.42-71.38,3.87-107.07,1.54-38,4.34-76,5.58-114.09.57-17.76,1.11-35.51,2-53.25s1.61-35.56,2.37-53.34q1.24-29.08,3.2-58.11c1.17-17.14,2.7-34.25,3.84-51.39,2.45-36.62,3.89-73.3,5.68-110,1.75-35.87,3.78-71.73,5.31-107.62,1.61-38,3-75.91,4-113.9,1-38.17,2.93-76.29,4-114.45,1-36.48.73-73,.7-109.5,0-23.75,0-47.5-.09-71.25,0-2.4,0-4.79,0-7.19-8.49-1.78-17-3.56-25.5-5.17l.86.13c-6.49-1-13-2-19.55-2.52-4.12-.31-8.26-.83-12.39-.92l-13.38-.3a181.07,181.07,0,0,0-30.43,1.78c-3.53.52-7,1.17-10.58,1.55-2,.21-3.82.78-5.89.5-5.16-.72-9.73-3.76-13.9-6.7a157.38,157.38,0,0,1-20.18-17.46c-7.11-7.11-14.21-14.81-19.45-23.45a29.71,29.71,0,0,1-3.19-6.5,21.24,21.24,0,0,1-.54-2.49c-.15-.76-.31-1.52-.46-2.27a2.82,2.82,0,0,1,4-4l.63.22a35.12,35.12,0,0,1,1.65-3.69c.92-1.72,3.14-3.23,4.67-4.35a37.11,37.11,0,0,1,6-3.49c7.31-3.62,15.24-5.61,23.16-7.36s16.23-2.83,24.41-3.9c16.61-2.18,33.4.12,50,.82a145.5,145.5,0,0,0,23.42-1c3.6-.43,7.18-.94,10.77-1.37a99.68,99.68,0,0,0,11.16-1.63,46.23,46.23,0,0,0,4.9-1.51,15.69,15.69,0,0,1,3.37-.84c3.09-.41,9.34,2.18,11.63,3.31,16.6,8.19,31.08,20.73,44.55,33.24,10.15,9.42,19.54,19.47,28.76,29.79a192.69,192.69,0,0,1,21.32,28c2.68,4.41,6.18,10.27,7.67,15.36a72,72,0,0,1,2.13,10.41,103.21,103.21,0,0,1,1.13,13.59q0,8.76,0,17.54c0,9.24-.43,18.49-.69,27.72-.27,9.6-.65,19.21-1,28.81-.62,18-1.21,36.07-1.64,54.11-.92,37.58-.79,75.14-.76,112.73,0,18.13-.49,36.27-1.1,54.39-.65,19.66-1.1,39.3-1.24,59-.26,37.46-.13,74.92-.41,112.39-.28,38.88,0,77.76.2,116.64s.23,77.8,1,116.68c.2,9.36.42,18.71.52,28.07s-.22,18.72-.43,28.07c-.39,18.44-.9,36.9-.82,55.36q.15,30,1,60.06c.52,18.92,1.67,37.81,1.88,56.74.41,37.17-2.94,74.24-4.24,111.36-.68,19.48-1.1,39-1.06,58.46,0,18.42.2,36.84,0,55.26-.45,38.11-1,76.22-.7,114.33.28,37.64,0,75.28.38,112.91.2,17.62.66,35.23.93,52.84.3,18.89,1.23,37.72,2.35,56.58,1,17.28,1.78,34.57,2.08,51.88.3,17.62.07,35.26-.11,52.89q-.23,21.54,1,43c.77,14.45,2.62,28.89,4.62,43.21,1.11,6.41,2.34,12.85,2.07,19.37a62.31,62.31,0,0,1-.89,7.34,29,29,0,0,1-2.75,8.6,10.47,10.47,0,0,1-1.8,2.8l-1.59,1.29a66.36,66.36,0,0,1-6.77,2.78,42.82,42.82,0,0,1-10.87,1.28C1652.58,2993.22,1645.38,2991.91,1638.44,2991Z" transform="translate(-769.35 -876.54)"/><path d="M2793,2996.55a32.42,32.42,0,0,1-14.22-4.25,155.14,155.14,0,0,1-20.8-12.82q-13.11-9.42-25.3-20a512,512,0,0,1-41.26-39.83q-12.08-12.93-23.08-26.77a253.58,253.58,0,0,1-16.58-23.31,80.93,80.93,0,0,1-8.71-17.77c-.32-2.05-.64-4.11-1-6.16.2-3.49,2-5.32,5.52-5.51,5,.06,10,.43,15,.54a164.55,164.55,0,0,0,16.47-.5c10.63-.81,21.15-2.75,31.78-3.66A298.58,298.58,0,0,1,2743,2836q8,.2,15.92,0c2.45,0,4.91-.17,7.37-.31a63.08,63.08,0,0,0,11.65-1.4,8.63,8.63,0,0,0,2.29-2.05,52.34,52.34,0,0,0,.4-10.7c-.07-3.66-.39-7.33-.79-11-.88-7.89-1.69-15.78-2.24-23.71-.57-8.28-1.24-16.5-2.22-24.75-1.05-8.9-2.4-17.82-3-26.77-.54-8.61-.46-17.24-.49-25.87q0-13.34,0-26.67,0-27.69-.31-55.39c-.18-17.92-.13-35.84-.06-53.76.08-17.43-.65-34.85-1.24-52.27-.63-18.46-1.28-36.92-1.53-55.39s-.07-37.14-.83-55.68-1.91-36.92-2.38-55.39c-.47-18-.48-35.93-.78-53.89-.32-18.79-.7-37.58-.53-56.38.16-17.53-.11-35.08-.68-52.6-.63-19.78-1.35-39.55-2.3-59.31-.88-18.39-1.67-36.76-1.75-55.16-.15-37,1.06-74.1,1.83-111.13.75-36.51,1.86-73,3-109.52,1.17-38.21,2.43-76.41,4.21-114.6,1.7-36.42,3.21-72.88,6.89-109.16,1.73-17,4.16-34,6.07-51,2.14-19.07,4.14-38.16,6.23-57.24,4.12-37.56,9.52-75,14.17-112.45,2.3-18.58,3.15-37.37,4.07-56.06.86-17.42,1.36-34.86,2.42-52.27,1.47-24.13,3.33-48.22,5.25-72.31q-16.07-1.08-32.17-1c-11.26.05-22.49,1.33-33.73,1.74-6.48.24-12.95.27-19.43.32-3,0-6.46.17-9.38-.67a37.32,37.32,0,0,1-9.36-4l-.09-.05a13.07,13.07,0,0,1-1.36-.66,52,52,0,0,1-7-4.3,145,145,0,0,1-22.32-20.06q-4.05-4.33-7.73-9a59.83,59.83,0,0,1-7.39-11.07,10.92,10.92,0,0,1-1.42-4.77c.35-2.26,2.17-1.89,3.91-1.52-6.8-1.44-4.4-4.51-1.89-7.47,1.15-1.35,3-2.28,4.42-3.31a102.44,102.44,0,0,1,10.09-6.1,150.25,150.25,0,0,1,21.07-9.38c15.13-5.54,31-8.54,46.46-13,7-2,13.85-4.58,21.08-5.56s14.56-.56,21.8-1c6.6-.37,12.91-3,19.06-5.21,3.2-1.16,5.29-1.06,8.95-.12,4.75,1.22,12,5.38,15.93,7.75,10.67,6.47,20.53,14.45,30,22.56a434.88,434.88,0,0,1,34,32.81c7.33,7.84,14.47,15.87,21.11,24.31a233.29,233.29,0,0,1,15.7,22.17,117.13,117.13,0,0,1,9.05,19c2.16,5.56,2.7,11.83,3.55,17.67.34,2.38.51,4.8.76,7.2.52,4.86.39,9.82.54,14.71.13,4.48-.35,9-.53,13.52-.16,3.79-.29,7.57-.59,11.35-1.54,18.82-3.4,37.61-4.93,56.44s-3,37.9-3.48,56.91c-.52,19.36-.61,38.72-1.15,58.07-.54,19.5-1.58,38.87-3.59,58.26-2,19-4.5,37.94-6.76,56.9-4.36,36.7-7.69,73.59-10.45,110.44-1.45,19.23-2.77,38.46-3.85,57.72-1,18.26-1.45,36.56-2.25,54.84-1.65,37.38-3.65,74.76-3.84,112.2-.11,19.66.08,39.32,0,59-.08,18.47-.54,36.91-1.11,55.37-1.17,38-2.23,76.05-2,114.1.12,17.62-.06,35.27.37,52.87.48,19.73,1.27,39.44,2,59.15,1.37,36.46,1,73,2.56,109.4.8,18.71,1.83,37.39,2.45,56.1.61,18.49,1,37,1.52,55.49s1.24,36.79,1.95,55.18c.68,17.85.61,35.71.93,53.58.34,19,1.23,37.94,2.42,56.9,1.13,18.12,1.88,36.25,2.51,54.4.67,19,1.42,38,1.61,57.05.17,18.12.14,36.24.22,54.37a385.53,385.53,0,0,0,2.44,43.1c1.54,13.21,3.52,26.41,5.53,39.57,1.41,8.63,2.78,17.26,4,25.91,1,7.32,1.27,14.69,1.91,22.05.35,4.22,1,8.44.7,12.67-.15,2.55-1.56,5-2.64,7.25s-5.5,3.43-7.34,4c-4.45,1.42-9,1.42-13.68,1.4-8.73,0-17.46-.57-26.18-.74-7.73-.16-15.44-.18-23.16.32-8.11.52-16.19,1.49-24.25,2.48s-16.28,2-24.44,2.87c-7.06.78-14.12,2.26-21.25,2.26Z" transform="translate(-769.35 -876.54)"/><path d="M2587.77,1226.41a55.92,55.92,0,0,1-7.34-4.53,152.41,152.41,0,0,1-23.49-21.12,111.56,111.56,0,0,1-14-17.68c-.69-1.14-6.42-10.39-1.47-10.39a11.48,11.48,0,0,1,5,1.5,56.94,56.94,0,0,1,7.34,4.52,154,154,0,0,1,23.49,21.13c5.08,5.47,10.12,11.27,14,17.68.7,1.14,6.43,10.39,1.47,10.39A11.48,11.48,0,0,1,2587.77,1226.41Z" transform="translate(-769.35 -876.54)"/><path d="M2556.17,2986.21c-9.25-1.76-17.69-6.17-25.71-10.94-19.07-11.37-35.81-26.28-52.17-41.14a448.27,448.27,0,0,1-60-67L2411,2856.2a79.71,79.71,0,0,1-8.59-17.51,47.36,47.36,0,0,1-1.86-11.15c-.41-7.64-.13-15.39.19-23s.07-15.52.22-23.28c.16-8.47.48-16.93.54-25.41.25-34.25.77-68.48,3-102.67,1.19-17.91,2.34-35.83,3.16-53.77s.78-36.11.88-54.17q.29-53,.88-106.07c.19-18.2-.12-36.4-.16-54.61,0-18.05,0-36.12,0-54.18,0-35.61-.41-71.31-2.26-106.88-1-18.31-2.24-36.56-3.65-54.84-1.44-18.5-2.59-37-3-55.52-.9-37-2.91-73.88-3.92-110.84-.47-17.37-.68-34.74-1.24-52.11q-.94-28.62-.76-57.23c.11-18,.23-36,.15-54s-.72-35.78-.86-53.67c-.31-37.63-.68-75.26-.72-112.89,0-17.61.06-35.21.55-52.81.51-18.2,1.14-36.38,1.61-54.58.48-18.92.6-37.84,1.13-56.76.25-9.08.48-18.16,1-27.24s1.21-18.24,1.84-27.37c1.22-17.64,2.42-35.33,2.77-53q.56-28.44.29-56.87c-.19-18.94-.45-37.88-1.12-56.8-.37-10.43-.91-20.79-1.61-31.19-.61-9.07-1.72-18.12-2.85-27.14-2.92-23.06-6.22-46.06-9.3-69.09q-.41-3.12-.76-6.24c-.33-2.82-.64-5.67.13-8.43.72-2.59,1-3.89,3-5.1a12.64,12.64,0,0,1,7.65-1.68c8.18.71,15.9,3.13,23.69,5.57a289.6,289.6,0,0,0,36.56,8.47c8.43,1.18,16.87,2.16,25.38,2.77,9,.65,17.94,1.07,26.93,1.45s18.37.41,27.32,2.08c5.12.95,10.12,2.32,15.14,3.7a51.55,51.55,0,0,1,13.25,5.67c9.51,5.77,17.89,13.61,25.72,21.41a173.53,173.53,0,0,1,13.87,15.45,96,96,0,0,1,6.28,8.83,30.79,30.79,0,0,1,3.29,6.72,6.19,6.19,0,0,1,.26,2.84l.78.59a7,7,0,0,1-1.42,3.41l-2.27,2.28c-.77.76-1.47,1.53-2.17,2.35a14.42,14.42,0,0,1-2.65,2.07,28.19,28.19,0,0,1-6,2.69l-7.29,2.84a194.79,194.79,0,0,0-25.42,11.82,124.71,124.71,0,0,0-21.78,15.18,59.76,59.76,0,0,0-7.74,8.24,51.33,51.33,0,0,1-3.81,4.64c-1.51,1.55-3.55,2.58-5.06,4.07-.7,5.12-.14,10.52,0,15.63.13,3.92.27,7.83.39,11.75.29,9.68.5,19.34.57,29,.14,17.49-.34,35-.65,52.47-.64,35.93-.52,71.87-.67,107.8-.16,38.28-1,76.56-1.06,114.84-.05,18.46.36,37,0,55.41-.38,18.26-.94,36.52-1.26,54.78-.35,19.94-.44,39.86-.06,59.8.35,18.35.95,36.71,1.28,55.06.31,17.6.08,35.21.42,52.8.39,20.21,1.2,40.37,2.22,60.55.91,18.1,1.64,36.21,2.35,54.32.73,19,1.63,38,2.28,57,.61,18.12.89,36.26,1.68,54.37.82,18.75,2.05,37.46,3.36,56.18,1.31,18.53,2.56,37.07,3.18,55.64.64,19,1.11,38.07,2.38,57.09,1.22,18.21,2.94,36.4,4.25,54.61,1.29,17.91,2.16,35.87,3,53.81,1.63,36.62,2.25,73.27,2.44,109.93.09,18.22-.06,36.43-.09,54.64,0,17.82.35,35.63.48,53.44.12,18,.13,36,.32,54,.19,18.76.21,37.5-.26,56.25-.44,17.92-1.34,35.83-1.85,53.74q-.71,24.7-1,49.43a75.4,75.4,0,0,1,14.84,7.49,236.62,236.62,0,0,1,21.66,15.41,430.59,430.59,0,0,1,37.92,34c15.31,15.31,30.07,31.56,42.57,49.28a145.28,145.28,0,0,1,11.92,19.33c1.89,4,6.39,12.39,2.53,16.93-2.7,3.18-5.44,6.29-8.36,9.26a27.16,27.16,0,0,1-11.72,7.28A35.2,35.2,0,0,1,2658,2988c-2,.17-4.06.14-6.07.18-8.94.19-17.88-.06-26.82-.07-9.18,0-18.34.15-27.51.3-4,.06-7.94.13-11.91.13C2575.79,2988.49,2565.92,2988.08,2556.17,2986.21Z" transform="translate(-769.35 -876.54)"/><path d="M2333.53,2923.67c-5.52-.32-11-.77-16.55-1.05-11.08-.56-22.19-1-33.29-1.2-22.52-.43-45-.1-67.54.28-11.11.19-22.21.51-33.31.76-11.76.27-23.5.64-35.26.26q-35.88-1.16-71.78-2.08c-24-.64-47.88-2.79-71.83-4.15-23.24-1.32-46.41.41-69.58,2.16-12.25.92-24.47,1.58-36.75,1.89-11,.27-22.1.42-33.11.17l-22.37-.52c-3.1-.07-6.23-.1-9.32-.31-3.87-.26-7.65-.72-11.46-1.32-2.44-.26-5.47-.6-7.84.12a12.27,12.27,0,0,1-5.32-1.59,59.14,59.14,0,0,1-7.78-4.8,162,162,0,0,1-24.92-22.4q-4.51-4.83-8.63-10c-3-3.83-6.15-7.91-8.24-12.35a12.27,12.27,0,0,1-1.59-5.33c.32-2.1,1.77-2.15,3.35-1.89a18.93,18.93,0,0,0,5.91-.48,41,41,0,0,1,6.92-2.5,78.82,78.82,0,0,1,8.27-1.21c4.93-.64,10-.84,14.91-1.18,11.21-.74,22.41-1.49,33.6-2.49,21.83-2,43.57-5.3,65.25-8.48,11.26-1.65,22.5-3.28,33.8-4.66,10.42-1.28,21-1.83,31.46-2.38,10.92-.57,21.87-.66,32.79-1.05s21.67-1.06,32.51-1.6c21.84-1.09,43.71-1.66,65.52-3.51,11-.93,21.94-1.74,33-2.07,11.28-.35,22.57-.45,33.85-.5s22.29-.26,33.43-.35c6-.05,11.95,0,17.93,0,4.88,0,9.77.07,14.66,0,5.86,0,11.71-.42,17.56-.56a92.39,92.39,0,0,1,9.56.23c5.19.41,10.3,1.82,15.32,3.17a48.13,48.13,0,0,1,10.56,5.18,149.87,149.87,0,0,1,13.86,9.86,284.12,284.12,0,0,1,32.31,30.12c8.56,9.22,17,19,23.59,29.78,1.31,2.16,10.77,17.18,2.47,17.5-2.6.1-5.16.52-7.75.66q-1.08.06-2.16.06C2337.51,2923.91,2335.52,2923.78,2333.53,2923.67Z" transform="translate(-769.35 -876.54)"/><path d="M1347,3245.22c-10.37-1-20.68-2.89-30.9-4.89-9.41-1.84-18.71-4.24-28.07-6.3-10.3-2.28-20.64-4.44-31-6.67-19.35-4.2-38.63-8.64-58-12.46-4-.59-7.91-1.15-11.91-1.56-6-.62-12.08-1-18.14-1.36-3.12-.19-6.32.06-9.44.09-2.64,0-5.27.24-7.9.41-5.55.35-11.12.74-16.64,1.36-12.27,1.36-24.48,2.92-36.67,4.86-11.26,1.79-22.45,4.29-33.77,5.64-6,.72-11.86,1.28-17.86,1.65-5.76.36-11.56.27-17.33.49-11.46.42-22.87,1.77-34.26,3.05a315.83,315.83,0,0,0-33.46,5.82c-7.46,1.67-14.58,4.49-22.33,4.43a73.88,73.88,0,0,1-18.11-2.66,55,55,0,0,1-11-4.81,137.41,137.41,0,0,1-18.15-11.19q-6.9-5-13.54-10.3a442.45,442.45,0,0,1-35.7-32c-8.81-8.67-17.34-17.65-25.4-27-12-14-23.91-29-31.93-45.68a78.59,78.59,0,0,1-6.69-22.06c-2-12.42-4.17-24.88-4.2-37.51,0-10.28.07-20.59.35-30.86.3-11.31.74-22.62.52-33.94-.43-22.92-1.22-45.84-1.66-68.76-.46-24.23-.9-48.45-1-72.68-.07-22.34.31-44.68.32-67q0-36.06-.43-72.1c-.57-46.33-2.18-92.62-2.5-139-.17-23.34-.32-46.68-.63-70-.31-23.82-.46-47.67.72-71.47.59-11.92,1.4-23.83,2-35.75.54-11.28.68-22.56.7-33.85,0-23.47-.25-46.94-.14-70.41.13-24.2.16-48.41.79-72.61.64-24,2.78-47.83,4.94-71.7,2.18-24,6.11-47.9,9.21-71.83,1.62-12.44,3.15-24.86,4-37.37a315.7,315.7,0,0,0,.29-34.67c-.47-11.78-1.09-23.56-2-35.32-.93-12.13-2.13-24.26-2.79-36.4q-.59-10.47-1.16-20.91c-.34-6.17-.34-12.37-.49-18.55-.26-11.93-.23-23.86-.28-35.78-.1-22.62-.37-45.29.68-67.89,1.11-23.88,2.9-47.74,3.32-71.64s.77-47.83.21-71.72c-.27-11.91-1.05-23.81-1.78-35.69s-1.5-23.48-2.41-35.21c-1.9-24.57-4.18-49.12-5.62-73.73-1.43-24.25-2.24-48.53-3.4-72.78-1.14-23.64-1.12-47.27-1-70.93.15-23.38.26-46.76.47-70.13.23-24.79.76-49.57,1.24-74.36.46-23.7,1.11-47.46.9-71.16s-.83-47.17-1.64-70.75c-.88-25.77-1.78-51.56-2.2-77.34-.11-6.67-.09-13.33,0-20A192.11,192.11,0,0,1,775.37,943c1-9.28,3-18.77,6.74-27.35a52.7,52.7,0,0,1,4.87-8.91,32.74,32.74,0,0,1,5.84-6c4.74-4.1,10.8-6.65,16.83-8.16,5.42-1.36,10.93-2.19,16.44-3,22.67-3.5,45.24-7.52,68.23-8.08q18-.45,36,.57c11.32.6,22.59,1.93,33.87,3,24.17,2.35,48.42,4.8,72.72,4.78,24.91,0,49.75-2.8,74.55-4.82,12.45-1,24.9-2,37.34-3.21,11.81-1.11,23.61-2.44,35.43-3.48,18.1-1.6,36.32-2.42,54.48-1.37q30,1.72,60,3.79c17.39,1.22,34.81,2.63,52.23,3.25,18.52.66,37,1,55.56,1.73a20.41,20.41,0,0,1,9,2.67,99.06,99.06,0,0,1,13.11,8.08c15.31,10.81,29.18,24,41.92,37.69,9.06,9.76,18,20.11,25,31.54a50.94,50.94,0,0,1,5.48,11.19c.61,2.37,1.48,7.6-2.86,7.35-26.08-1.49-52-4.49-77.93-7.24-11-1.16-22-2.3-33-2.83l-20.42-1c-4.33-.21-8.69-.18-13-.16-2.15,0-4.28,0-6.41,0a297.53,297.53,0,0,0-64.88,6.26c-5.73,1.25-11.43,2.51-17.12,3.9-5.12,1.26-10.18,2.73-15.29,4-10.86,2.64-21.76,4.92-32.8,6.74-11.8,2-23.62,3.83-35.44,5.71-11.12,1.76-22.29,3.49-33.34,5.67-10.28,2-20.5,4.07-30.92,5.22a149.67,149.67,0,0,1-15.85.62c-5.85,0-11.7-.19-17.55-.42-10.49-.43-21-.47-31.46-.41-11.5.07-23,0-34.51.5a242.67,242.67,0,0,0-34,3.94c-10.24,1.9-20.56,4-30.61,6.74-5.24,1.43-10.4,3-15.52,4.79l-.27.11a49,49,0,0,0-12,7.22c-6.33,4.83-10.05,11.74-13,18.91a207.9,207.9,0,0,0-6,21.77c-.9,4.31-1.48,8.69-2.11,13-.92,6.41-1.6,12.81-2.27,19.25-1.11,10.79-1.69,21.7-1.86,32.55-.21,12.66-.15,25.29,0,38,.15,12.19.63,24.39.91,36.58.55,24.56.56,49.11.31,73.67-.24,22.85-1.06,45.68-1.6,68.52-1.16,49-1.09,97.92-.65,146.88.2,22.52,1.12,45,1.93,67.53.88,24.15,1.82,48.32,4.09,72.39,2.44,25.81,4.91,51.6,6.86,77.45,1.8,24,2.77,48,3.24,72,.24,12.25.26,24.49.24,36.73s-.63,24.22-1.15,36.32c-.45,10.82-1.1,21.63-1.44,32.46-.39,12.15-.68,24.3-.94,36.46-.5,23.53-.83,47.06-.56,70.6.27,24.68,2,49.27,3.78,73.87.85,11.64,1.47,23.3,2.09,34.95a311.83,311.83,0,0,1-.51,36.43c-.78,12.2-2.62,24.39-4.18,36.51-1.47,11.49-3.23,23-4.84,34.43-3.42,24.42-6.27,49-7.42,73.59-1.12,24-.66,48.1-.38,72.11.27,23.27.63,46.53.59,69.81,0,24.1-.49,48.17-1,72.27s-.18,48.14-.54,72.2c-.34,23-.83,46-1,69-.2,23.67.2,47.33,1,71,.84,23.24,2.35,46.46,2.8,69.71s.1,46.43-.15,69.62q-.39,35-.29,70.07c.18,47.37-.28,94.72,2.52,142q.66,11.15,1.4,22.31c6-.42,12-.8,17.94-1.18,11.56-.75,23-2.05,34.46-3.65,12.78-1.79,25.55-3.46,38.41-4.57q17.6-1.53,35.26-1.86c6-.11,11.94,0,17.93.14,3.19.07,6.43.53,9.61.8,3,.24,5.91.57,8.87.92,12.47,1.46,24.83,3.7,37.14,6.16,27.09,5.43,54.09,11.24,81.33,15.87a394.62,394.62,0,0,0,55.68,4.39,130.22,130.22,0,0,0,30.89-3.79c2.27-.55,4.54-1.11,6.84-1.51a35,35,0,0,1,9.42-.17,165.69,165.69,0,0,0,17.24,1.22,26.23,26.23,0,0,1,11.48,3.43,125.79,125.79,0,0,1,16.79,10.35c19.64,13.86,37.42,30.74,53.74,48.32,11.62,12.52,23.13,25.77,32,40.43a64.76,64.76,0,0,1,7,14.35c.26,1.65.53,3.31.79,5-.16,2.81-1.64,4.3-4.46,4.45l-.32.1a54.88,54.88,0,0,0-8.06,5,27.49,27.49,0,0,1-7.73,3.43c-1.91.52-3.79,1-5.71,1.34-4.24.85-8.58,1.38-12.86,2A150.7,150.7,0,0,1,1374,3247q-1.32,0-2.64,0C1363.24,3247,1355.05,3246,1347,3245.22Z" transform="translate(-769.35 -876.54)"/><path d="M2894.09,3225.23c-8.53-1.54-16.83-3.84-25.2-6.06-15.66-4.16-31.39-8.49-47.35-11.33-21.49-2.93-43.38-2.17-64.72-6.44-9.68-1.94-19.2-5-28.7-7.64a129.26,129.26,0,0,1-18.68-6.45,124.86,124.86,0,0,1-22.61-13.7A395.78,395.78,0,0,1,2653.5,3146c-12.32-11.45-23.72-23.66-34.89-36.22a216.28,216.28,0,0,1-23.32-31,68.06,68.06,0,0,1-7.41-15.13,6.48,6.48,0,0,1,9.11-9.11,68.44,68.44,0,0,1,13.46,6.36c5.86,1.92,11.84,3.54,17.77,5.2,7.17,2,14.29,4,21.59,5.35,9.91,1.34,19.85,2,29.85,2.47,5.88.28,11.74.62,17.59,1.23a209.63,209.63,0,0,1,21.84,3.71c10,2.15,20,4.71,30,7.3,9.75,2.54,19.39,5.43,29.27,7.4a90.42,90.42,0,0,0,13.58.49,141.25,141.25,0,0,0,15.89-1.81c10.48-1.66,20.66-4.83,31.17-6.36,11.08-1.62,22.1-1.49,33.26-.94s22.33,2.4,33.42,4.19c9.81,1.46,19.61,2.72,29.5,3.49,9.45.75,19,.72,28.46.83,20.06.24,40.11-.7,60.12-2,19.54-1.25,39.08-1.41,58.65-1.57,9.24-.07,18.49-.05,27.74-.26,4.31-.09,8.61-.3,12.91-.58,9.09-.61,18.15-1.17,26.91-3.78a24.7,24.7,0,0,0,2.87-1.64,8.63,8.63,0,0,0,3.16-3.47c.85-3.16,1.47-6.36,2.08-9.58s1.71-6.62,2.38-10c1.19-5.94,1.29-12.13,1.59-18.17.45-9.06-.08-18.21-.35-27.27-.29-10.05-.9-20.08-1.39-30.12-.44-9.1-.4-18.2-.5-27.3-.11-9.58-.29-19.16-.38-28.74-.16-17.1.26-34.25-1.76-51.25-1.85-9.87-4.14-19.62-6.54-29.39-3.2-13-5.65-26-7.67-39.26-3.26-21.21-3.19-42.67-4-64.05-.43-11.58-.94-23.14-1.36-34.72-.38-10-.61-20.09-1.24-30.12-.73-11.65-1.58-23.3-2.14-35-.54-11.28-.61-22.55-.64-33.85-.07-23-.25-46,.26-69,.49-21.41.91-42.83,1.48-64.24.3-11.19.71-22.38,1.06-33.57.34-11,.45-22,.72-32.95q.84-33.51,1.14-67,.27-35.23-.11-70.45-.42-33.46.25-66.92c.44-23.15-.43-46.28-.8-69.43-.35-22.07.34-44.15,0-66.22-.2-11.69-.65-23.36-1.1-35-.41-10.76-1-21.56-1-32.34,0-23.49.67-47,1.78-70.44,1.09-23.07,1.29-46.1,1.17-69.19-.12-24.13-.95-48.25-1.53-72.37-.54-22.26-.19-44.53.65-66.78.4-10.9,1.31-21.8,2.23-32.67q1.59-18.7,3.23-37.4,3-33.78,4.13-67.67c.86-23.71,1.91-47.39,2.06-71.13.13-22.46-.12-45-.77-67.43-.72-24.85-1.86-49.68-2.15-74.53-.28-24.32-.44-48.64-.17-73,.27-23.13.74-46.25,1.15-69.38q.58-33.51,1.4-67a490.89,490.89,0,0,1,5.77-64.73q5.28-33.67,11.28-67.23c.54-3,1.07-6,1.61-9q-10.18-.12-20.38-.36c-23.14-.56-46.16-3.23-69.33-3-11.75.12-23.46,1.07-35.2,1.43s-23.43.29-35.14.42c-12.59.14-25.18.32-37.77.43-6,0-12-.08-18-.19-5.79-.11-11.57-.62-17.35-1s-11.55-1.28-17.26-2.09c-6.38-.9-12.77-1.65-19.17-2.33-11.87-1.27-23.84-1.12-35.75-1.06-5.28,0-10.65.33-15.92.72-6.36.48-12.72,1-19.08,1.46q-20.13,1.65-40.3,2.64c-11.2.58-22.41,1.59-33.64,1.38a366.36,366.36,0,0,1-37.89-2.42c-3.44-.42-6.88-.78-10.28-1.43l-5.56-1.07c-4.36-.85-8.56-3.22-12.23-5.6q-4-7.08-7.91-14.18c-25.13-17.76-61.81-44-40.85-49.26l3.76-.94a26.77,26.77,0,0,1,3.33-.4l4.65-.57c5.29-.64,10.61-1,15.9-1.72,10.28-1.29,20.39-3.23,30.51-5.42,11.27-2.42,22.48-5.08,33.72-7.64,10.3-2.34,20.57-5,30.93-7.06,11-2.23,22-4.3,33.08-6.37a180.67,180.67,0,0,1,29.63-2.7c3.83-.06,7.66-.06,11.49-.06,6.69,0,13.38,0,20.07-.38,11.67-.65,23.23-2,34.82-3.46,21-2.69,41.72-6.53,62.43-10.66,5-1,10-1.91,15.09-2.75a144.57,144.57,0,0,1,16.5-1.41c10.53-.53,21.14-.19,31.68-.08,21.65.21,43.26.74,64.9-.48,10.95-.63,21.9-1.32,32.85-2,10.47-.66,20.95-1,31.4-1.9a51.19,51.19,0,0,1,19.62,1.59c6,1.82,12.81,5.81,18.07,9a231.14,231.14,0,0,1,23.19,16.77c21.88,17.34,41.73,37.25,60,58.3,11.67,13.43,22.8,28,31,43.83a113,113,0,0,1,8.34,20.47,82.59,82.59,0,0,1,2.81,20.4c.23,8-1.38,16-3,23.74-2.83,13.39-6.4,26.65-9.65,39.95q-3.72,15.26-7.19,30.58c-5.2,23.1-10.35,46.2-14.4,69.53-1,5.51-1.5,11.1-2,16.66s-.94,11.08-1.11,16.63q-.5,17.31-.59,34.61c-.15,24-.5,47.91-.75,71.87-.25,23.4-1.18,46.78-2.11,70.16-.92,22.7-1.65,45.4-1.19,68.12.49,24.59,1.67,49.16,2.29,73.75.59,23.34,1.08,46.69.94,70-.07,12.06-.5,24.11-.86,36.16-.33,11.48-.65,23-1.05,34.46-1.63,46.14-7.47,92-8.82,138.17-.66,22.69-.26,45.34.63,68,1,23.88,2.12,47.81,2.06,71.73q0,18.27-.65,36.52c-.37,11.12-.79,22.24-.83,33.37-.08,23.63.2,47.25,1.05,70.87.83,22.52,2.38,45,3,67.56.68,24.32.66,48.66,1,73,.31,21.61.88,43.2,1.33,64.8.49,23.24,0,46.5-.26,69.74-.25,22.54.38,45.07.15,67.6-.11,11.58-.34,23.17-.94,34.73-.57,11.17-1.36,22.33-1.73,33.51-.74,22.18.22,44.45.72,66.63.25,10.92.52,21.84.28,32.76-.26,11.53-.71,23.05-1,34.57-.55,20.94-1.12,41.87-.91,62.82.23,22,1.67,44,3.76,66,2,21.55,2.89,43.23,4,64.85.52,10.08.65,20.16,1.13,30.24.45,9.57,1.61,19.07,3,28.55,3.5,20.65,7.48,41.2,11.42,61.77a347.68,347.68,0,0,1,5.12,36.77c.9,10.75.6,21.56.48,32.34s-.3,21.35-.18,32,.54,21.57.95,32.35.65,21.86,1.74,32.73c.48,4.75,1.44,9.47,1.61,14.26a24.15,24.15,0,0,1-1.36,8.63c-1.17,3.59-2.33,7.17-3.26,10.84-.49,1.9-.82,3.86-1.17,5.8-.2,1.17-.44,2.32-.69,3.48q-1,2.61-2,5.2a8.27,8.27,0,0,1-3.68,3.22l-2.12.93a45.29,45.29,0,0,1-7,2.34c-3.38,1-7.13,1.07-10.62,1.27a160.12,160.12,0,0,1-16.54-.17c-6-.28-12-.61-18-1-22.72-1.3-45.52-2.11-68.27-1.66-22.1.44-44,3.77-66.1,5.13-10.46.64-20.93,1-31.41,1.28-11.08.29-22-.94-33-2.37-8.68-1.14-17.28-2.7-26-3.48-9-.8-18-.86-27.06-.9a138.13,138.13,0,0,0-28.09,3c-8.58,1.73-17,4.05-25.61,5.8a100.07,100.07,0,0,1-12,1.77c-1.09.1-2.2.14-3.31.14A84.41,84.41,0,0,1,2894.09,3225.23ZM2700.21,1014l-.3.52a2.32,2.32,0,0,1-1.43.17C2700,1014.89,2700.49,1014.63,2700.21,1014Z" transform="translate(-769.35 -876.54)"/></svg>